Coordinates
version=1
nRows=25
nColumns=28
inDegrees=yes

Units are S.I. units (second, meters, Newtons, ...)
If the header above contains a line with 'inDegrees', this indicates whether rotational values are in degrees (yes) or radians (no).

endheader
time	pelvis_tilt	pelvis_list	pelvis_rotation	pelvis_tx	pelvis_ty	pelvis_tz	hip_flexion_r	hip_adduction_r	hip_rotation_r	knee_angle_r	knee_angle_r_ie	knee_angle_r_vv	ankle_angle_r	subtalar_angle_r	mtp_angle_r	hip_flexion_l	hip_adduction_l	hip_rotation_l	knee_angle_l	knee_angle_l_ie	knee_angle_l_vv	ankle_angle_l	subtalar_angle_l	mtp_angle_l	lumbar_extension	lumbar_bending	lumbar_rotation
      0.81000000	      6.67494717	     -2.85357239	     -1.15203408	      0.29657189	      0.96407753	      0.40895188	      8.14254673	      0.86800198	     -0.94629145	     -7.11624526	    -11.44795246	     -2.04164434	    -21.43075354	      3.90964790	      0.00000000	     11.66527560	     -5.51805331	     -5.83509239	    -11.58473840	      2.68585351	     -2.27973058	    -13.84464902	     -1.11595291	      0.00000000	    -24.31881689	      4.60817274	      8.47104876
      0.81500000	      6.70454287	     -2.85369112	     -1.25550718	      0.29878737	      0.95218233	      0.40912476	      8.62426187	      0.82603195	     -0.45650412	     -8.78544832	    -10.71697334	     -2.01938673	    -17.32673280	      3.94516332	      0.00000000	     12.44831792	     -5.61343847	     -5.69831553	    -13.25000002	      2.44824180	     -2.20605278	    -12.31810541	     -1.31526499	      0.00000000	    -24.65331908	      4.62586117	      8.54079235
      0.82000000	      6.73827905	     -2.87027301	     -1.34906871	      0.30097125	      0.94002080	      0.40927465	      9.10688984	      0.78661803	      0.09593274	    -10.83101203	     -9.69691414	     -1.94686524	    -11.45316021	      4.09001707	      0.00000000	     13.26773751	     -5.75112506	     -5.51781205	    -15.36534245	      2.01195964	     -2.16936357	     -9.02055898	     -1.17279756	      0.00000000	    -24.98658483	      4.66778902	      8.65190398
      0.82500000	      6.72942166	     -2.87973453	     -1.48313982	      0.30300719	      0.92758387	      0.40949447	      9.72764008	      0.75859125	      1.03005955	    -13.27784824	     -8.92839746	     -1.80160264	     -4.51721251	      4.36894687	      0.00000000	     14.19469464	     -5.91211063	     -5.16454078	    -18.00620471	      2.53101624	     -2.20453955	     -3.63379310	      0.73561800	      0.00000000	    -25.28496989	      4.68739908	      8.70688180
      0.83000000	      6.66305861	     -2.93191050	     -1.63455025	      0.30480883	      0.91495292	      0.40975335	     10.55666175	      0.80172992	      2.17741472	    -16.04963143	     -7.87903061	     -1.58006056	      2.32114984	      4.01416743	      0.00000000	     15.30752956	     -6.13929414	     -4.62974942	    -21.17799002	      2.55044314	     -2.28031585	      2.82167843	      2.45229689	      0.00000000	    -25.54559985	      4.75477989	      8.84529213
      0.83500000	      6.47273004	     -3.08177452	     -1.79185264	      0.30622510	      0.90225498	      0.41007578	     11.75599645	      1.00465417	      3.51742414	    -19.11304616	     -7.04395391	     -1.27366449	      8.45534449	      3.30257633	      0.00000000	     16.75091261	     -6.46655000	     -3.81404114	    -24.81438782	      2.58100124	     -2.40008523	      9.47221383	      4.16673349	      0.00000000	    -25.72061218	      4.93502524	      9.03509518
      0.84000000	      6.05762226	     -3.36848471	     -1.98388119	      0.30709389	      0.88963562	      0.41047653	     13.51906807	      1.42573734	      4.95117216	    -22.48449388	     -6.64105727	     -0.86871531	     13.56696860	      2.59820753	      0.00000000	     18.66277205	     -6.90660700	     -2.78033631	    -28.73562439	      2.72229419	     -2.53959116	     15.46231406	      5.51776729	      0.00000000	    -25.73184678	      5.26029972	      9.28268036
      0.84500000	      5.33200470	     -3.77744204	     -2.26076183	      0.30723050	      0.87724919	      0.41093545	     16.01678579	      2.04362244	      6.35407933	    -26.24719781	     -6.69659402	     -0.32062470	     17.51412037	      2.14532467	      0.00000000	     21.11522769	     -7.42880035	     -1.66450075	    -32.73727896	      2.94796316	     -2.63962000	     20.40910708	      6.53163448	      0.00000000	    -25.51749858	      5.70542923	      9.64042120
      0.85000000	      4.19674624	     -4.31050750	     -2.64119464	      0.30648987	      0.86515082	      0.41141977	     19.40853566	      2.86316652	      7.57537250	    -30.51003778	     -7.13703404	      0.38855299	     20.35212358	      1.99934674	      0.00000000	     24.17018873	     -8.05347841	     -0.35719983	    -36.65406774	      3.70938708	     -2.84062915	     24.15215627	      7.46861852	      0.00000000	    -25.00661709	      6.28843452	     10.12418531
      0.85500000	      2.64397855	     -4.85770627	     -3.17299032	      0.30484252	      0.85333982	      0.41190106	     23.73130865	      3.78076698	      8.45594537	    -35.35475692	     -7.79743977	      1.16709471	     22.20272752	      2.36464705	      0.00000000	     27.74702687	     -8.71457295	      0.79769183	    -40.36144215	      4.81089659	     -3.02812202	     26.88926661	      8.70821842	      0.00000000	    -24.19795620	      6.89302352	     10.74068705
      0.86000000	      0.79518992	     -5.22856046	     -3.84569428	      0.30240679	      0.84177698	      0.41232615	     28.80893000	      4.60834225	      9.13817544	    -40.73820960	     -8.59138815	      2.02582690	     23.00292445	      3.03403155	      0.00000000	     31.67261694	     -9.24678634	      1.98207328	    -43.86060473	      5.94511373	     -3.40542812	     28.69294612	      9.56606261	      0.00000000	    -23.19192405	      7.31487636	     11.40364040
      0.86500000	     -1.11794935	     -5.32101913	     -4.53338807	      0.29950263	      0.83044902	      0.41266008	     34.19967554	      5.21735449	      9.19820515	    -46.27580632	     -8.65914250	      2.56831908	     22.81802270	      3.19204122	      0.00000000	     35.71925835	     -9.52381558	      3.09909246	    -47.22641189	      6.37506344	     -3.90421455	     29.54196095	      9.27919168	      0.00000000	    -22.18181712	      7.45248808	     11.94782727
      0.87000000	     -2.80174917	     -5.19027527	     -5.02863362	      0.29657254	      0.81945424	      0.41277046	     39.33080776	      5.52050899	      8.20816080	    -51.58144268	     -9.57914650	      2.38751173	     22.59235157	      5.37933906	      0.00000000	     39.63742423	     -9.46177769	      4.18555139	    -50.75204647	      8.25307264	     -4.42755869	     30.37766904	     10.88726397	      0.00000000	    -21.43253787	      7.38508734	     12.29530126
      0.87500000	     -4.04971235	     -4.98590969	     -5.28325983	      0.29402711	      0.80893611	      0.41281460	     43.74549851	      5.57380752	      6.00537241	    -56.18458826	     -9.05287602	      1.21540939	     21.93246188	      6.11585168	      0.00000000	     43.19229004	     -9.17318682	      5.07350802	    -54.28720300	      8.71515576	     -4.76932597	     30.55455114	     10.74592813	      0.00000000	    -21.14507557	      7.21157773	     12.39640582
      0.88000000	     -4.80356776	     -4.85355053	     -5.31330467	      0.29215152	      0.79900597	      0.41286925	     47.20518466	      5.44329465	      2.89001115	    -59.97072498	     -9.05302808	     -0.73760545	     21.73129509	      7.77568021	      0.00000000	     46.24693443	     -8.78166954	      5.64163768	    -57.93331474	     10.21755169	     -4.79256465	     30.93816773	     12.32621061	      0.00000000	    -21.37369529	      7.07554171	     12.28226474
      0.88500000	     -5.04289540	     -4.87082484	     -5.23681924	      0.29099932	      0.78988351	      0.41304227	     49.58424760	      5.24218123	     -0.70123461	    -62.90266368	     -8.25611454	     -3.13507470	     21.73513281	      8.38998269	      0.00000000	     48.62691601	     -8.46525542	      5.53634873	    -61.24583825	     10.16674775	     -4.18470604	     31.10328022	     12.46604658	      0.00000000	    -22.18182772	      7.02829879	     12.15555052
      0.89000000	     -4.93668134	     -5.00467449	     -5.14755535	      0.29041764	      0.78148071	      0.41330592	     51.07266942	      5.04094655	     -4.00023560	    -65.15086243	     -7.46777184	     -5.31499682	     22.24544751	      8.53978976	      0.00000000	     50.40031141	     -8.28708967	      4.98932397	    -64.24376876	     11.13062412	     -3.23575326	     31.75424668	     14.08727197	      0.00000000	    -23.38025795	      7.05494686	     12.05605206
      0.89500000	     -4.64930264	     -5.13300495	     -5.13484397	      0.29009452	      0.77362041	      0.41364358	     51.96136900	      4.87143019	     -6.47284241	    -66.89277260	     -7.07972383	     -6.89091718	     23.28372229	      8.67647579	      0.00000000	     51.64846436	     -8.26815654	      3.69636370	    -66.60214587	     10.67173564	     -1.73703302	     32.46613563	     14.39626322	      0.00000000	    -24.79029932	      7.03022952	     12.06067909
      0.90000000	     -4.35164042	     -5.10870757	     -5.23292740	      0.28973213	      0.76602583	      0.41398380	     52.59401321	      4.70250470	     -8.01400017	    -68.31118324	     -6.99849372	     -7.86214994	     24.51788459	      8.53484884	      0.00000000	     52.52600663	     -8.32466245	      1.96908480	    -68.40222969	     10.23657300	     -0.09610925	     33.43617920	     14.77972083	      0.00000000	    -26.21037772	      6.81175350	     12.09659132
      0.90500000	     -4.22212680	     -4.87703592	     -5.41899089	      0.28922422	      0.75830522	      0.41428402	     53.29348326	      4.48361839	     -8.53913363	    -69.61724892	     -7.18741454	     -8.12198517	     25.98707565	      8.25822653	      0.00000000	     53.26858046	     -8.39042956	      0.07905069	    -69.75507238	      9.68780397	      1.45759838	     34.68860658	     15.17330489	      0.00000000	    -27.40572670	      6.39180472	     12.11267269
      0.91000000	     -4.30320667	     -4.43738491	     -5.64986591	      0.28864128	      0.75031877	      0.41454381	     54.17489706	      4.17279504	     -8.27493185	    -70.91863852	     -7.59319843	     -7.82133847	     27.61199389	      7.95320958	      0.00000000	     53.99927819	     -8.41118686	     -1.64051964	    -70.82895918	      9.12352096	      2.64699749	     36.12385585	     15.47242529	      0.00000000	    -28.29461257	      5.78682813	     12.06053813
      0.91500000	     -4.57381033	     -3.87046991	     -5.85279364	      0.28814714	      0.74206637	      0.41472298	     55.22084146	      3.75641163	     -7.53518343	    -72.25261121	     -8.08287564	     -7.15280258	     29.38928527	      7.71713888	      0.00000000	     54.81671392	     -8.37043412	     -2.83968082	    -71.83731528	      8.63244226	      3.24528633	     37.61628282	     15.65151918	      0.00000000	    -28.88223658	      5.11707227	     11.90622500
      0.92000000	     -4.96880271	     -3.29084752	     -5.96938272	      0.28788964	      0.73365260	      0.41478504	     56.33404502	      3.25712042	     -6.65459795	    -73.60658638	     -8.51318748	     -6.34370265	     31.32832234	      7.61734590	      0.00000000	     55.77788848	     -8.29290236	     -3.25172816	    -72.96954272	      8.28893058	      3.10883908	     39.04241551	     15.72083443	      0.00000000	    -29.23961867	      4.50148220	     11.63527118
      0.92500000	     -5.41591191	     -2.78926003	     -5.97049948	      0.28793667	      0.72519615	      0.41470194	     57.41153639	      2.71313015	     -5.88976332	    -74.94829957	     -8.73608200	     -5.61132262	     33.38513763	      7.64175986	      0.00000000	     56.90774573	     -8.20301729	     -2.80512608	    -74.35596061	      8.10353210	      2.24712767	     40.29007739	     15.72847756	      0.00000000	    -29.46712668	      4.03501811	     11.27294197
      0.93000000	     -5.85891059	     -2.40000388	     -5.89115230	      0.28824467	      0.71674199	      0.41447365	     58.40527442	      2.16842467	     -5.24966609	    -76.26315231	     -8.77085776	     -4.98415359	     35.47631228	      7.76749904	      0.00000000	     58.20068297	     -8.12006214	     -1.69884850	    -76.04834359	      8.04963738	      0.86523163	     41.30182356	     15.70274150	      0.00000000	    -29.63267488	      3.72375531	     10.85386961
